<svg width="180" height="34" viewBox="0 0 180 34" fill="none" xmlns="http://www.w3.org/2000/svg">
<g clip-path="url(#clip0_305_543)">
<path d="M30.4824 6.78271H26.272V22.9992H30.4824V6.78271Z" fill="white"/>
<path d="M30.4824 0.854004H26.272V4.76347H30.4824V0.854004Z" fill="white"/>
<path fill-rule="evenodd" clip-rule="evenodd" d="M49.8126 0.858887L45.769 1.90304V6.78317H38.6314V0.858887L34.5878 1.90304V6.78317H31.7341V10.0055H34.5878V18.3821C34.5878 21.532 36.6726 22.9997 39.1949 22.9997H42.9165V19.7762H39.9941C39.7596 19.7447 38.6781 19.4029 38.6326 17.0568C38.6326 17.0288 38.6326 10.0055 38.6326 10.0055H45.7702V18.3821C45.7702 21.532 47.855 22.9997 50.3761 22.9997H54.0978V19.7762H51.1753C50.9408 19.7447 49.8138 19.4041 49.8138 17.0568C49.8126 16.9973 49.815 16.8806 49.815 16.8806V10.0055H54.0978V6.78317H49.8126V0.858887Z" fill="white"/>
<path fill-rule="evenodd" clip-rule="evenodd" d="M77.2 6.78271H69.8804V22.9934H73.924V10.0062H76.0695C76.0695 10.0062 77.1988 10.0284 77.1988 11.2545V13.358H80.9461V10.397C80.9461 10.397 81.0873 6.78388 77.2011 6.78388L77.2 6.78271Z" fill="white"/>
<path fill-rule="evenodd" clip-rule="evenodd" d="M175.803 6.78271H168.484V22.9934H172.528V10.0062H174.673C174.673 10.0062 175.803 10.0284 175.803 11.2545V13.358H179.548V10.397C179.548 10.397 179.692 6.78388 175.803 6.78388V6.78271Z" fill="white"/>
<path fill-rule="evenodd" clip-rule="evenodd" d="M90.2293 6.78296H86.6091V0.854004H82.5667V22.9925H86.6091V10.3961H90.2083C92.5789 10.3961 92.6757 12.5742 92.6757 12.5742V22.9925H96.7182V12.5742C96.7182 12.5742 97.0635 6.78296 90.2304 6.78296H90.2293Z" fill="white"/>
<path fill-rule="evenodd" clip-rule="evenodd" d="M145.729 6.81689H129.859V23.0276H133.903V10.4312H138.877V23.0276H142.921V10.4312H145.699C147.81 10.4312 147.897 12.6093 147.897 12.6093V23.0276H151.939V12.6093C151.939 12.6093 152.03 6.81806 145.729 6.81806V6.81689Z" fill="white"/>
<path fill-rule="evenodd" clip-rule="evenodd" d="M55.6389 10.2737C54.7779 11.9653 54.6729 14.0851 54.6613 14.4748C54.6613 14.5121 54.6589 15.1176 54.6589 15.2366V15.2623H54.6613C54.6671 15.5154 54.7406 17.7391 55.6389 19.5019C55.9108 20.1342 57.4566 22.9925 63.1195 22.9925H67.3067L68.3508 19.7702H62.997C59.1937 19.7702 59.0829 17.2958 59.1261 16.5993V16.5794H65.741L66.7852 13.3571H59.1436L59.1261 13.2055V13.1775C59.0829 12.4821 59.1937 10.0065 62.997 10.0065H68.3508V6.78418H63.1195C57.4554 6.78418 55.9096 9.64366 55.6389 10.276V10.2737Z" fill="white"/>
<path fill-rule="evenodd" clip-rule="evenodd" d="M115.634 10.2737C114.773 11.9653 114.671 14.0851 114.657 14.4748V15.2366V15.2623C114.663 15.5154 114.738 17.7391 115.634 19.5019C115.907 20.1342 117.452 22.9925 123.117 22.9925H127.302L128.346 19.7702H122.995C119.189 19.7702 119.078 17.2958 119.124 16.5993V16.5794H125.736L126.781 13.3571H119.141L119.124 13.2055V13.1775C119.08 12.4821 119.19 10.0065 122.995 10.0065H128.346V6.78418H123.117C117.452 6.78418 115.907 9.64366 115.634 10.276V10.2737Z" fill="white"/>
<path fill-rule="evenodd" clip-rule="evenodd" d="M154.231 10.2737C153.37 11.9653 153.267 14.0851 153.256 14.4748C153.253 14.5121 153.253 15.1176 153.253 15.2366V15.2623C153.259 15.5154 153.335 17.7391 154.231 19.5019C154.504 20.1342 156.048 22.9925 161.714 22.9925H165.901L166.945 19.7702H161.591C157.786 19.7702 157.675 17.2958 157.72 16.5993V16.5794H164.335L165.379 13.3571H157.738L157.72 13.2055V13.1775C157.676 12.4821 157.787 10.0065 161.591 10.0065H166.945V6.78418H161.714C156.048 6.78418 154.504 9.64366 154.231 10.276V10.2737Z" fill="white"/>
<path fill-rule="evenodd" clip-rule="evenodd" d="M17.2922 0.854004L11.9326 17.914L6.57295 0.854004H0L0.00233331 22.9995H4.04597V5.7108L9.45459 23.0007H14.3557L19.8168 5.71196V23.0007L23.8161 22.9995L23.8651 0.854004H17.2922Z" fill="white"/>
<path fill-rule="evenodd" clip-rule="evenodd" d="M108.97 19.7758H104.683C104.656 19.7734 104.63 19.7699 104.602 19.7676C104.003 19.6381 102.977 19.2204 102.977 17.8695V6.78271H98.9336L98.9359 19.3791C98.9359 19.3791 98.7948 22.9922 102.681 22.9922H113.015V6.78271H108.972V19.7758H108.97Z" fill="white"/>
<path d="M179.546 26.6265H0V34.0044H179.546V26.6265Z" fill="#E6007E"/>
<g clip-path="url(#clip1_305_543)">
<path d="M30.563 6.78271H26.3525V22.9992H30.563V6.78271Z" fill="white"/>
<path d="M30.563 0.854004H26.3525V4.76347H30.563V0.854004Z" fill="white"/>
<path fill-rule="evenodd" clip-rule="evenodd" d="M49.8932 0.858887L45.8496 1.90304V6.78317H38.712V0.858887L34.6683 1.90304V6.78317H31.8147V10.0055H34.6683V18.3821C34.6683 21.532 36.7532 22.9997 39.2755 22.9997H42.9971V19.7762H40.0746C39.8401 19.7447 38.7586 19.4029 38.7131 17.0568C38.7131 17.0288 38.7131 10.0055 38.7131 10.0055H45.8507V18.3821C45.8507 21.532 47.9356 22.9997 50.4567 22.9997H54.1783V19.7762H51.2559C51.0214 19.7447 49.8944 19.4041 49.8944 17.0568C49.8932 16.9973 49.8955 16.8806 49.8955 16.8806V10.0055H54.1783V6.78317H49.8932V0.858887Z" fill="white"/>
<path fill-rule="evenodd" clip-rule="evenodd" d="M77.2805 6.78271H69.9609V22.9934H74.0046V10.0062H76.1501C76.1501 10.0062 77.2794 10.0284 77.2794 11.2545V13.358H81.0267V10.397C81.0267 10.397 81.1678 6.78388 77.2817 6.78388L77.2805 6.78271Z" fill="white"/>
<path fill-rule="evenodd" clip-rule="evenodd" d="M175.884 6.78271H168.564V22.9934H172.608V10.0062H174.754C174.754 10.0062 175.884 10.0284 175.884 11.2545V13.358H179.629V10.397C179.629 10.397 179.773 6.78388 175.884 6.78388V6.78271Z" fill="white"/>
<path fill-rule="evenodd" clip-rule="evenodd" d="M90.3098 6.78296H86.6897V0.854004H82.6472V22.9925H86.6897V10.3961H90.2888C92.6595 10.3961 92.7563 12.5742 92.7563 12.5742V22.9925H96.7988V12.5742C96.7988 12.5742 97.1441 6.78296 90.311 6.78296H90.3098Z" fill="white"/>
<path fill-rule="evenodd" clip-rule="evenodd" d="M145.809 6.81689H129.939V23.0276H133.983V10.4312H138.958V23.0276H143.001V10.4312H145.779C147.891 10.4312 147.977 12.6093 147.977 12.6093V23.0276H152.02V12.6093C152.02 12.6093 152.111 6.81806 145.809 6.81806V6.81689Z" fill="white"/>
<path fill-rule="evenodd" clip-rule="evenodd" d="M55.7195 10.2737C54.8585 11.9653 54.7535 14.0851 54.7418 14.4748C54.7418 14.5121 54.7395 15.1176 54.7395 15.2366V15.2623H54.7418C54.7477 15.5154 54.8212 17.7391 55.7195 19.5019C55.9913 20.1342 57.5371 22.9925 63.2001 22.9925H67.3872L68.4314 19.7702H63.0776C59.2743 19.7702 59.1635 17.2958 59.2066 16.5993V16.5794H65.8216L66.8657 13.3571H59.2241L59.2066 13.2055V13.1775C59.1635 12.4821 59.2743 10.0065 63.0776 10.0065H68.4314V6.78418H63.2001C57.536 6.78418 55.9902 9.64366 55.7195 10.276V10.2737Z" fill="white"/>
<path fill-rule="evenodd" clip-rule="evenodd" d="M115.715 10.2737C114.854 11.9653 114.751 14.0851 114.737 14.4748V15.2366V15.2623C114.743 15.5154 114.819 17.7391 115.715 19.5019C115.988 20.1342 117.533 22.9925 123.198 22.9925H127.383L128.427 19.7702H123.075C119.27 19.7702 119.159 17.2958 119.204 16.5993V16.5794H125.817L126.861 13.3571H119.222L119.204 13.2055V13.1775C119.16 12.4821 119.271 10.0065 123.075 10.0065H128.427V6.78418H123.198C117.533 6.78418 115.988 9.64366 115.715 10.276V10.2737Z" fill="white"/>
<path fill-rule="evenodd" clip-rule="evenodd" d="M154.311 10.2737C153.45 11.9653 153.348 14.0851 153.336 14.4748C153.334 14.5121 153.334 15.1176 153.334 15.2366V15.2623C153.34 15.5154 153.415 17.7391 154.311 19.5019C154.584 20.1342 156.129 22.9925 161.794 22.9925H165.981L167.026 19.7702H161.672C157.866 19.7702 157.755 17.2958 157.801 16.5993V16.5794H164.416L165.46 13.3571H157.818L157.801 13.2055V13.1775C157.757 12.4821 157.867 10.0065 161.672 10.0065H167.026V6.78418H161.794C156.129 6.78418 154.584 9.64366 154.311 10.276V10.2737Z" fill="white"/>
<path fill-rule="evenodd" clip-rule="evenodd" d="M17.3728 0.854004L12.0131 17.914L6.65351 0.854004H0.0805664L0.0828997 22.9995H4.12653V5.7108L9.53516 23.0007H14.4363L19.8974 5.71196V23.0007L23.8967 22.9995L23.9457 0.854004H17.3728Z" fill="white"/>
<path fill-rule="evenodd" clip-rule="evenodd" d="M109.051 19.7758H104.763C104.737 19.7734 104.711 19.7699 104.683 19.7676C104.083 19.6381 103.058 19.2204 103.058 17.8695V6.78271H99.0142L99.0165 19.3791C99.0165 19.3791 98.8753 22.9922 102.761 22.9922H113.096V6.78271H109.052V19.7758H109.051Z" fill="white"/>
<path d="M179.627 26.6265H0.0805664V34.0044H179.627V26.6265Z" fill="#E6007E"/>
</g>
</g>
<defs>
<clipPath id="clip0_305_543">
<rect width="179.55" height="33.1506" fill="white" transform="translate(0 0.854004)"/>
</clipPath>
<clipPath id="clip1_305_543">
<rect width="179.55" height="33.1506" fill="white" transform="translate(0.0805664 0.854004)"/>
</clipPath>
</defs>
</svg>
